<svg width="27" height="26" viewBox="0 0 27 26" fill="none" xmlns="http://www.w3.org/2000/svg">
<path d="M18.1836 13.2255C18.1836 13.3622 18.1472 13.4926 18.1209 13.6268C18.1134 13.6649 18.1046 13.7096 18.1054 13.7484C18.1119 14.0566 18.3565 14.3289 18.6689 14.3529C19.0009 14.3784 19.3074 14.1234 19.3329 13.792C19.3329 13.6055 19.3585 13.4177 19.3585 13.2312C19.3585 12.4919 19.2308 11.778 19.0009 11.0897C18.6944 10.1974 18.1581 9.40715 17.5196 8.74432C16.7279 7.95403 15.7574 7.39317 14.6592 7.08725C14.1484 6.95978 13.5865 6.8833 13.0502 6.8833C12.8714 6.8833 12.6927 6.8833 12.4883 6.90879C12.3096 6.93429 12.1308 6.95978 11.952 6.98527C11.62 7.03626 11.3901 7.36768 11.4668 7.6736C11.5178 8.00501 11.8498 8.23445 12.1563 8.15797C12.3096 8.13248 12.4373 8.10699 12.5905 8.10699C12.616 8.10699 12.6416 8.10699 12.6671 8.10699C12.7948 8.10699 12.9225 8.08149 13.0502 8.08149C14.4549 8.08149 15.7574 8.64235 16.6768 9.5856C17.5962 10.5034 18.1581 11.7525 18.1836 13.1547V13.2057C18.1836 13.2124 18.1836 13.219 18.1836 13.2255Z" fill="white"/>
<path d="M21.5549 13.996C21.5293 14.3274 21.7847 14.6333 22.1167 14.6588C22.4488 14.6843 22.7552 14.4294 22.7808 14.0979C22.8063 13.8175 22.8063 13.5371 22.8063 13.2567C22.8063 12.6958 22.7552 12.1604 22.6786 11.6251C22.3466 9.58561 21.3506 7.75008 19.9459 6.34794C18.3369 4.74185 16.1916 3.69662 13.8164 3.51817C13.561 3.49268 13.2801 3.49268 13.0247 3.49268C12.7438 3.49268 12.4628 3.49268 12.1819 3.51817C11.901 3.54366 11.62 3.56916 11.3391 3.62014C11.0071 3.67113 10.7772 4.00254 10.8538 4.30847C10.9049 4.63988 11.2369 4.86932 11.5434 4.79284C11.6423 4.77874 11.7333 4.76465 11.8252 4.75055C11.9776 4.72717 12.1299 4.69087 12.2841 4.69087C12.5394 4.66537 12.7948 4.66537 13.0247 4.66537C13.893 4.66537 14.7103 4.79284 15.502 5.02228C16.8812 5.43018 18.1071 6.16949 19.1031 7.16373C19.9204 7.97952 20.5844 8.97376 21.0186 10.0445C21.4016 11.0132 21.6315 12.084 21.6315 13.2057C21.6315 13.375 21.6056 13.5428 21.5784 13.7099C21.5627 13.8061 21.5549 13.8971 21.5549 13.996Z" fill="white"/>
<path d="M22.4233 3.9005C19.997 1.47862 16.6769 0 12.9992 0C12.6161 0 12.233 0.0254934 11.8499 0.0509869C11.4668 0.0764803 11.0838 0.127467 10.7007 0.203947C10.3687 0.254934 10.1388 0.586349 10.2154 0.89227C10.2665 1.22368 10.5985 1.45313 10.905 1.37665C11.0838 1.35115 11.237 1.32566 11.4158 1.30016C11.5945 1.27467 11.7733 1.24918 11.9521 1.24918C12.3097 1.22368 12.6417 1.19819 12.9992 1.19819C16.3193 1.19819 19.333 2.54934 21.5294 4.71628C23.7003 6.88323 25.0538 9.89145 25.0538 13.2311C25.0538 13.4095 25.0538 13.6135 25.0538 13.7919C25.0538 13.9449 25.0283 14.0979 25.0283 14.2763C25.0028 14.6077 25.2582 14.9137 25.5902 14.9391C25.9222 14.9646 26.2287 14.7097 26.2542 14.3783C26.2797 13.9959 26.3053 13.6135 26.3053 13.2566C26.3053 9.61102 24.824 6.29688 22.4233 3.9005Z" fill="white"/>
<path d="M25.3601 19.3495L20.8396 16.9277C19.3328 16.1119 19.2817 16.6472 17.6983 18.3298C17.3152 18.7377 16.6001 19.8084 15.7573 19.6045C13.9951 19.1711 10.7005 16.5963 9.62781 15.4236C9.11702 14.8627 6.92062 12.1859 6.89508 11.3191C6.844 9.99346 9.7555 9.33063 8.81054 6.80678L6.79292 2.29444C4.903 -2.03944 -0.383667 4.89477 0.0505037 8.13244C1.17424 16.1119 15.1954 29.0116 23.0105 24.7542C24.7472 23.7854 27.0968 20.3948 25.3601 19.3495Z" fill="white"/>
</svg>
